<?xml version="1.0"?>
 <svg width="1200" height="1200" version="1.1" viewBox="0 0 1200 1200" xmlns="http://www.w3.org/2000/svg"> <g fill="#fcb414"> <path d="m978.72 700.12c63.039 0 153.74-23.941 184.78-117.76 38.078-115.1-36.539-269.46-127.38-371.34-76.238-85.52-157.42-129.12-217.34-117.14-103.08-52.078-210.04-53.281-211-52.781 0 0-4.3203-0.23828-12.121-0.23828-32.898 0-132.02 4.3984-222.12 51.922-59.121-7.0586-136.62 36.281-209.66 118.24-90.84 101.9-165.46 256.26-127.38 371.34 31.039 93.801 121.72 117.76 184.78 117.76 5.9805 0 11.719-0.21875 17.141-0.60156 35.461 70.82 96.781 123.28 169.62 141.7-7.6992 46.941-27.52 183.78-8.3398 245.8 12.922 41.781 36 53.18 53.078 55.422 2.2188 0.28125 4.4609 0.42188 6.6992 0.42188 26.66 0 52.98-19.859 66.281-41.16 5.4805-8.7812 8.2383-19.602 10-31.359 25.301 10.262 70.68 25.738 114.04 25.738-0.53906 2.8008-0.69922 5.6211-0.019531 8.4414 0.96094 3.9609 10.238 39.141 41.578 50.98 6.4609 2.4414 13.199 3.6602 20.18 3.6602 16.34 0 34.078-6.6602 52.941-19.922 17.539-12.34 25.941-38.078 29.52-66.422 8.4414-1.6602 27.34-5.7812 48.699-13.039 0.19922 16.301 4.2383 35.84 21.238 46.078 6.7617 4.0586 14.078 5.6406 21.379 5.6406 22.66 0 45.219-15.281 50.641-19.199 1.2188-0.85938 2.3203-1.8789 3.3008-2.9805 45.898-52.262 60.422-112.76 60.219-168.88 132.24-52.16 147.84-226.3 148.44-234 0.82031-10.379-6.4609-19.621-16.719-21.301-10.262-1.6602-20.102 4.8008-22.621 14.898-6.5195 26.059-89.82 103.94-128.34 123.84-11-34.98-23.281-59.898-27.219-67.5 8.0195-11.5 15.379-23.578 21.801-36.34 1.3398-0.039062 2.5391 0.082032 3.8984 0.082032zm27.543-462.48c80.48 90.301 152.14 232.76 119.26 332.14-23.762 71.82-90.719 87.422-134.08 89.719 10.5-31.461 16.539-65.34 16.539-100.82v-145.12c0-124.24-45.32-207.04-105.4-262.32 33.016 17.98 69.133 47.641 103.68 86.402zm-931.78 332.14c-32.879-99.383 38.781-241.86 119.26-332.14 32.039-35.961 65.48-64.16 96.48-82.398-49.5 52.18-84.719 127.94-84.719 238.34v165.12c0 35.621 6.0781 69.621 16.66 101.2-41.379 0.17578-121.28-10.281-147.68-90.121zm171.02-11.082v-165.12c0-297.64 291.7-312.72 350.18-312.72 6.2188 0 9.7617 0.17969 11.078 0.21875 14.738 0 361.26 3.7812 361.26 332.5v145.12c0 137.8-98.699 249.88-220 249.88h-124.58v-48.219c35.238-10.16 77.379-43.398 78.301-78.738 2.2188-22.719-3.8398-42.781-17.559-58.078-28.34-31.539-78.699-32.461-84.359-32.461-13.539 0-47.641 2.6602-71.898 27.16-15.461 15.602-23.5 37.199-23.238 62.199 0 46.781 51.5 69.52 78.762 78.281v49.84h-117.92c-121.35 0.015625-220.03-112.08-220.03-249.86zm359.94 164.8c-21.301-5.3398-60.781-21.68-60.781-43.262-0.16016-14.699 3.6602-25.781 11.66-33.859 14.059-14.199 36.82-15.301 43.48-15.301 9.6992 0 40.52 3.5195 54.578 19.18 6.3008 7.0391 8.7617 16.219 7.4805 28.039l-0.12109 2.1406c0 15.242-34.797 41.461-56.297 43.062zm480.98 47.078c-15.961 40.379-43.422 84.262-89.699 107.5-1.5781-12.379-3.7188-24.34-6.2188-35.719 28.395-12.281 65.055-41.281 95.918-71.781zm-175.64 290.52c-9.4609 6.3398-22.578 11.48-25.719 10.82-0.039062-0.058594-4.2812-6-1-29.301 0.019531-0.17969-0.039062-0.35938-0.019531-0.51953 17.738-9.6406 33.52-21.801 42.461-36.859 5.6406-9.5 2.5-21.781-6.9805-27.398-9.5195-5.6797-21.781-2.5195-27.422 6.9805-12.699 21.398-60.941 38.602-95.801 46.621-0.16016-27.422-2.9609-52.5-4.7383-65.539-1.5-10.961-11.602-18.539-22.52-17.121-10.941 1.5-18.602 11.578-17.102 22.52 7.5195 55.199 5.0781 124.3-10.441 135.22-14.961 10.5-27.719 14.602-35.879 11.621-7.6016-2.8203-12.781-12.02-15.32-18.281 1.7812-6.3203 3.1211-13.801 4.1797-21.82 0.019531-0.12109 0.019531-0.21875 0.039062-0.33984 5.2812-40.281 2.6016-95.301 2.1992-103.02-0.60156-11.039-10.02-19.48-21.039-18.898-11.039 0.60156-19.5 10.02-18.898 21.059 1.1602 21.281 1.5781 53.199-0.17969 79.039-45.02 2.5195-98.738-19.262-116.72-27.262 1.5195-15.32 4.2188-32.039 10.18-35.281 9.6992-5.2812 13.301-17.422 8.0195-27.121s-17.398-13.262-27.121-8.0195c-27.078 14.719-29.781 50.301-32.18 81.68-1.1406 15.039-2.5586 33.738-6.8984 40.66-7.2617 11.66-23.141 23.539-33.898 22.262-10.422-1.3594-17.02-17.859-20.02-27.578-15.102-48.781-0.019532-169.18 9.6016-227.62 5.9609 0.46094 11.898 1.0195 17.961 1.0195h282.47c68.34 0 130.42-29.781 176.88-78.02 21.383 48.977 71.34 190.86-14.098 290.5z"></path> <path d="m470.28 570.24c0 17.211-13.953 31.16-31.16 31.16-17.211 0-31.16-13.949-31.16-31.16 0-17.207 13.949-31.16 31.16-31.16 17.207 0 31.16 13.953 31.16 31.16"></path> <path d="m798.32 570.24c0 17.211-13.949 31.16-31.16 31.16-17.211 0-31.16-13.949-31.16-31.16 0-17.207 13.949-31.16 31.16-31.16 17.211 0 31.16 13.953 31.16 31.16"></path> </g> </svg> 